<?xml version="1.0" standalone="no"?>
<!DOCTYPE svg PUBLIC "-//W3C//DTD SVG 1.1//EN" "http://www.w3.org/Graphics/SVG/1.1/DTD/svg11.dtd">
<svg xmlns="http://www.w3.org/2000/svg">
  <defs>
    <font id="Montserrat" horiz-adv-x="565">
      <font-face font-family="Montserrat Thin" units-per-em="1000" panose-1="0 0 0 0 0 0 0 0 0 0" ascent="968" descent="-251" alphabetic="0" />
      <glyph unicode=" " glyph-name="gid175" horiz-adv-x="262" />
      <glyph unicode="!" glyph-name="gid186" horiz-adv-x="260" d="M92,210l83,490h84L147,210H92ZM85-5Q63-5 48.5,9.5T34,44q0,23 16,38.5T88,98t36.5-14T139,50q0-15-7.5-27.5T112,2.5T85-5Z" />
      <glyph unicode="&quot;" glyph-name="gid218" horiz-adv-x="373" d="M110,436l47,264h63L163,436H110Zm171,0l47,264h63L334,436H281Z" />
      <glyph unicode="#" glyph-name="gid193" horiz-adv-x="696" d="M355,0L579,700h57L411,0H355ZM16,190l11,55H632l-11-55H16ZM95,0L320,700h56L151,0H95Zm6,455l10,55H716l-11-55H101Z" />
      <glyph unicode="$" glyph-name="gid234" horiz-adv-x="615" d="M210-120L398,820h49L259-120H210ZM266-6Q215-6 165.5,5.5T76,37.5T12,83l36,58q24-25 59.5-44T186,67.5T272,57q62,0 108.5,16T453,120t26,75q0,35-20,56.5t-52,35T336,311t-78,24t-71.5,32t-52,50T115,495q0,66 36,113.5T250,681t145,25q62,0 119.5-15T612,646l-31-60q-38,28-87,42.5T391,643q-61,0-107-17t-71.5-48.5T187,502q0-35 19.5-57t52-36T330,383.5t78-24t71.5-31t52.5-48T552,205q0-67-37-114.5t-101.5-72T266-6Z" />
      <glyph unicode="%" glyph-name="gid251" horiz-adv-x="829" d="M93,0L708,700h62L156,0H93ZM224,326q-62,0-98.5,39.5T89,475q0,61 22.5,113T176,672t100,32q62,0 98.5-39.5T411,555q0-60-22.5-112.5t-64-84.5T224,326Zm4,44q44,0 73.5,27.5T346,467t15,84q0,53-23.5,81T272,660q-43,0-73-27.5T154,563t-15-84q0-53 24-81t65-28ZM588-5q-62,0-99,39.5T452,144q0,61 22.5,113t65,84T640,373q62,0 98.5-39.5T775,224q0-60-22.5-112.5T688.5,27T588-5Zm4,44q44,0 73.5,27.5T710,136t15,84q0,53-23.5,81T636,329q-43,0-73.5-27.5T517,232t-15-84q0-53 24-81t66-28Z" />
      <glyph unicode="&amp;" glyph-name="gid221" horiz-adv-x="669" d="M243-6Q177-6 129.5,13.5T55.5,69T29,154q0,51 26,92.5T136.5,327T280,406q76,35 119,61.5t60,52T476,577q0,31-24,53t-69,22q-57,0-91.5-31T257,539q0-27 13.5-56.5T312,416L610,35L562-11L252,386q-29,38-45,73t-16,72q0,54 25,93t69,60t100,21q46,0 80.5-14.5T519,648t19-66q0-47-24.5-83.5t-76-69.5T304,359q-76-36-120.5-66.5t-64-60.5T100,165q0-50 38.5-81T248,53q68,0 128.5,29t110,88T570,318l56-18q-39-102-97-170.5T398.5,27.5T243-6Z" />
      <glyph unicode="&apos;" glyph-name="gid219" horiz-adv-x="202" d="M110,436l47,264h63L163,436H110Z" />
      <glyph unicode="(" glyph-name="gid202" horiz-adv-x="329" d="M132-194q-14,37-24.5,81t-16,91.5T86,71q0,92 16,184.5t45.5,180t71,165.5T311,742h73q-53-66-95-146.5T216.5,427T170,247.5T154,67q0-66 10.5-129.5T196-194H132Z" />
      <glyph unicode=")" glyph-name="gid203" horiz-adv-x="329" d="M-2-194Q51-127 93.5-47T166,121t46,179.5T228,481q0,66-10,129.5T186,742h64q15-36 25-80.5T290.5,570t5.5-93q0-92-16-184.5t-45.5-180T164-53T71-194H-2Z" />
      <glyph unicode="*" glyph-name="gid192" horiz-adv-x="386" d="M440,630L284,551l3,18l122-78l-28-42L260,529l10,4L240,380H193l32,153l11-5L86,449L67,490l155,79l-2-15L98,631l28,42l119-79l-9-5l29,153h47L280,589l-9,4l151,80l18-43Z" />
      <glyph unicode="+" glyph-name="gid239" horiz-adv-x="575" d="M231,138l85,424h63L294,138H231ZM81,320l12,59H529l-12-59H81Z" />
      <glyph unicode="," glyph-name="gid182" horiz-adv-x="212" d="M-26-146L55,39L62-5Q40-5 25,10T10,47q0,25 17,41t39,16t36.5-14.5T117,52q0-13-4.5-24.5T98-1L22-146H-26Z" />
      <glyph unicode="-" glyph-name="gid198" horiz-adv-x="382" d="M56,240l12,62H330l-12-62H56Z" />
      <glyph unicode="." glyph-name="gid181" horiz-adv-x="212" d="M62-5Q40-5 25,10T10,47q0,25 17,41t39,16t36.5-14.5T117,52q0-17-7.5-29.5T89,2.5T62-5Z" />
      <glyph unicode="/" glyph-name="gid194" horiz-adv-x="335" d="M-99-100L417,842h69L-30-100H-99Z" />
      <glyph unicode="0" glyph-name="gid128" horiz-adv-x="662" d="M287-6Q216-6 165,24T86.5,111T59,247q0,89 24.5,171.5t70,147.5t110,102.5T409,706q72,0 122.5-30t78-86.5T637,453q0-89-24.5-171.5T542.5,134T432.5,31.5T287-6Zm6,66q65,0 115.5,35t85,93T546,315t18,137q0,91-42.5,139.5T403,640q-65,0-115.5-35t-85-93T150,385T132,248q0-91 42.5-139.5T293,60Z" />
      <glyph unicode="1" glyph-name="gid129" horiz-adv-x="361" d="M121,0L254,667l26-31H83l13,64H334L194,0H121Z" />
      <glyph unicode="2" glyph-name="gid130" horiz-adv-x="568" d="M-14,0L-3,51L347,335q51,40 79,72.5T465.5,469T477,529q0,52-36.5,82.5T326,642q-55,0-105.5-21T133,562L83,605q43,47 109.5,74T336,706q70,0 118-21.5t72.5-59T551,538q0-39-14-77.5t-47.5-79T397,293L75,34L56,64H491L478,0H-14Z" />
      <glyph unicode="3" glyph-name="gid131" horiz-adv-x="564" d="M218-6Q138-6 74.5,19T-22,85l40,56q27-35 80-58T222,60q66,0 112.5,19.5T406,135t25,84q0,60-41.5,90.5T262,340H217l11,53L495,663l9-27H113l13,64H575l-10-51L297,378l-34,23h17q73,0 123-21.5t76-61T505,223q0-67-36-119T368.5,23T218-6Z" />
      <glyph unicode="4" glyph-name="gid132" horiz-adv-x="661" d="M25,184l10,52L493,700h85L122,236L80,248H644l-12-64H25ZM382,0l37,184l15,64l33,162h69L454,0H382Z" />
      <glyph unicode="5" glyph-name="gid133" horiz-adv-x="566" d="M232-6Q152-6 88.5,19T-8,85l41,56q27-35 80-58T237,60q99,0 154,43.5T446,222q0,59-45,93T251,349H89L195,700H577l-13-64H210l48,35L167,377l-32,36H263q133,0 194.5-49.5T519,230q0-72-35.5-125t-100-82T232-6Z" />
      <glyph unicode="6" glyph-name="gid134" horiz-adv-x="609" d="M317-6Q242-6 183.5,25t-91,92.5T60,271q0,59 13,120.5t41.5,118t73.5,101t109,70T445,706q49,0 93-9t75-30l-34-58q-28,19-64,26.5T441,643q-65,0-114.5-20.5t-85-55t-58.5-79t-34.5-94T136,296q-1-24-1-36.5t0-22.5l-30,7q17,64 53,102.5T243,402t102,17q63,0 113.5-23t81-67T570,222q0-70-32.5-121.5T448,21.5T317-6Zm-1,61q81,0 131,43t50,119q0,69-47,105T330,358q-56,0-98.5-21t-66-57T142,199q0-35 19.5-68.5T220,76t96-21Z" />
      <glyph unicode="7" glyph-name="gid135" horiz-adv-x="589" d="M122,0L555,668l19-32H141l44,35L152,505H81l38,195H634l-10-51L204,0H122Z" />
      <glyph unicode="8" glyph-name="gid136" horiz-adv-x="638" d="M291-6Q212-6 154,16.5t-89,64T34,179q0,64 33.5,110.5t97,72T317,387q82,0 140-21.5t88.5-62T576,208q0-66-35.5-114T441,20T291-6Zm3,61q97,0 153,41t56,111q0,60-50,94.5T315,336q-97,0-152.5-41T107,184q0-60 49.5-94.5T294,55Zm67,289q-76,0-129,20t-80,57t-27,87q0,61 32,105.5T247,682t135,24q71,0 124-20.5T588.5,627T618,536q0-59-30.5-102t-88-66.5T361,344Zm1,49q85,0 134,37t49,97q0,55-45,86.5T379,645q-82,0-131.5-36.5T198,509q0-53 43-84.5T362,393Z" />
      <glyph unicode="9" glyph-name="gid137" horiz-adv-x="609" d="M327,706q76,0 134-31t90.5-92T584,429q0-59-13-120.5t-41.5-118T456,89.5t-109-70T198-6q-48,0-91.5,9T31,33L65,91q29-19 64-26.5T203,57q65,0 114.5,20.5t85,55t58.5,79t34.5,94T508,404q1,24 1,36.5t0,22.5l30-7q-16-63-52.5-102T401,298T299,281q-62,0-113.5,23T104,371T74,478q0,71 32.5,122T196,678.5T327,706Zm1-61q-81,0-131-43T147,483q0-68 46.5-104.5T314,342q56,0 98.5,21t66,57.5T502,501q0,36-20,69t-58,54t-96,21Z" />
      <glyph unicode=":" glyph-name="gid183" horiz-adv-x="212" d="M147,421q-22,0-37,15T95,473q0,25 17,41t39,16t36.5-14.5T202,478q0-17-7.5-29.5t-20.5-20T147,421ZM62-5Q40-5 25,10T10,47q0,25 17,41t39,16t36.5-14.5T117,52q0-17-7.5-29.5T89,2.5T62-5Z" />
      <glyph unicode=";" glyph-name="gid184" horiz-adv-x="212" d="M147,421q-22,0-37,15T95,473q0,25 17,41t39,16t36.5-14.5T202,478q0-17-7.5-29.5t-20.5-20T147,421ZM-26-146L55,39L62-5Q40-5 25,10T10,47q0,25 17,41t39,16t36.5-14.5T117,52q0-13-4.5-24.5T98-1L22-146H-26Z" />
      <glyph unicode="&lt;" glyph-name="gid245" horiz-adv-x="575" d="M563,557l-14-66L108,330l6,33L493,202l-12-59L80,317l13,66L563,557Z" />
      <glyph unicode="=" glyph-name="gid243" horiz-adv-x="575" d="M105,435l12,59H552l-13-59H105ZM59,205l12,59H506l-12-59H59Z" />
      <glyph unicode="&gt;" glyph-name="gid244" horiz-adv-x="575" d="M47,143l14,66L501,370l-7-33L118,498l12,59L529,383l-13-66L47,143Z" />
      <glyph unicode="?" glyph-name="gid188" horiz-adv-x="567" d="M225,210q8,45 29,76.5t49,55t57.5,44T415,427t40.5,48T471,540q0,49-36.5,76T329,643q-66,0-115.5-20.5T126,562L79,605q44,49 109.5,75T339,706q64,0 110-18.5t71-53T545,551q0-47-15.5-80.5T489,413t-54-45t-57-42.5t-49.5-49T298,210H225ZM227-5Q206-5 191.5,9.5T177,44q0,23 16,38.5T231,98q21,0 35.5-14T281,50q0-15-7-27.5t-19.5-20T227-5Z" />
      <glyph unicode="@" glyph-name="gid220" horiz-adv-x="1033" d="M439-200q-124,0-213,47T89.5-22T42,172q0,109 38,206T189,548.5T360,664t224,42q130,0 220.5-45.5T942,533.5T989,343q0-69-16.5-131.5t-46-111t-69-77T772-5q-55,0-83,32t-16,86l15,72l24,64l7,105l31,153h65L739,127q-8-40 6-57.5T788,52q32,0 59,25t47.5,67t32,93T938,342q0,94-40.5,164.5T777,616T578,655q-109,0-197.5-37.5T229,514T132,360.5T98,175Q98,79 137.5,6t117-114T444-149q54,0 104,11t91,32l11-50q-43-21-98.5-32.5T439-200ZM468-5Q404-5 354.5,21t-77,74T250,208q0,64 21,119t59,96.5T420,488t115,23q101,0 155-54.5T745,302q1-85-32-154.5t-95-111T468-5Zm14,58q65,0 115,32t79,86.5T705,295q0,76-45,117T536,453q-63,0-113-31t-78.5-85.5T316,212q0-76 44-117.5T482,53Z" />
      <glyph unicode="A" glyph-name="gid1" horiz-adv-x="717" d="M-50,0L410,700h73L663,0H589L425,659h30L30,0H-50ZM113,187l34,60H554l11-60H113Z" />
      <glyph unicode="B" glyph-name="gid10" horiz-adv-x="754" d="M62,0L202,700H501q101,0 158-38t57-111q0-68-33-113.5T596.5,369T481,346l22,23q84,0 133.5-38.5T686,217q0-70-36.5-119T546,24.5T387,0H62Zm85,61H393q105,0 162.5,40T613,216q0,60-41.5,84T450,324H187l12,61H435q60,0 106.5,17T614,453.5T640,538q0,52-40,76.5T487,639H262L147,61Z" />
      <glyph unicode="C" glyph-name="gid11" horiz-adv-x="719" d="M391-6Q287-6 214,30.5t-111.5,102T64,285q0,86 29.5,162t85,134.5t134,91.5T490,706q84,0 149-26t100-76l-52-46q-33,41-83,61.5T484,640q-79,0-143.5-27.5T231,536T161.5,423.5T137,288q0-67 29.5-118.5T254,89T396,60q69,0 125,21t98,62l43-49Q616,45 545,19.5T391-6Z" />
      <glyph unicode="D" glyph-name="gid13" horiz-adv-x="826" d="M62,0L202,700H468q106,0 179.5-35.5t112-99T798,415q0-92-30.5-168.5T679.5,115T542,30T363,0H62Zm86,64H365q111,0 191.5,45t124,123.5T724,412q0,67-29,117.5T607.5,608T460,636H262L148,64Z" />
      <glyph unicode="E" glyph-name="gid15" horiz-adv-x="669" d="M205,387H575l-12-63H193l12,63ZM148,64H569L556,0H62L202,700H682l-13-64H262L148,64Z" />
      <glyph unicode="F" glyph-name="gid20" horiz-adv-x="633" d="M200,361H570l-13-64H186l14,64ZM135,0H62L202,700H682l-13-64H262L135,0Z" />
      <glyph unicode="G" glyph-name="gid21" horiz-adv-x="773" d="M391-6Q288-6 215,30.5t-112,102T64,285q0,86 29.5,162t85,134.5T313,673t178,33q88,0 154.5-26.5T751,604l-52-45q-36,42-88.5,61.5T488,640q-81,0-145.5-27.5T232.5,537T162,425T137,288q0-67 29.5-118.5t88-80.5T399,60q63,0 115.5,21T612,141l30-60Q594,41 528.5,17.5T391-6ZM574,92l51,258h71L642,81L574,92Z" />
      <glyph unicode="H" glyph-name="gid22" horiz-adv-x="813" d="M713,700h73L646,0H573L713,700ZM135,0H62L202,700h73L135,0ZM645,323H193l12,65H658l-13-65Z" />
      <glyph unicode="I" glyph-name="gid23" horiz-adv-x="302" d="M62,0L202,700h73L135,0H62Z" />
      <glyph unicode="J" glyph-name="gid29" horiz-adv-x="489" d="M154-6Q86-6 36.5,21T-37,95l52,47q19-39 55.5-61.5T156,58q61,0 99.5,34.5T310,209l85,427H140l13,64H480L382,209q-15-79-45.5-126t-76-68T154-6Z" />
      <glyph unicode="K" glyph-name="gid30" horiz-adv-x="711" d="M163,176l11,91L679,700h97L398,375l-44-36L163,176ZM62,0L202,700h73L135,0H62ZM570,0L332,348l50,49L653,0H570Z" />
      <glyph unicode="L" glyph-name="gid31" horiz-adv-x="589" d="M62,0L202,700h73L148,64H540L527,0H62Z" />
      <glyph unicode="M" glyph-name="gid32" horiz-adv-x="955" d="M62,0L202,700h60L475,153l-31,1L864,700h65L789,0H718L836,591l19-2L467,89H432L234,592l16-3L133,0H62Z" />
      <glyph unicode="N" glyph-name="gid33" horiz-adv-x="813" d="M62,0L202,700h60L615,89l-23,4L713,700h73L646,0H586L233,611l23-4L135,0H62Z" />
      <glyph unicode="O" glyph-name="gid35" horiz-adv-x="839" d="M388-6Q285-6 212,30.5t-110.5,102T64,285q0,86 29,162t84.5,134.5T311,673t175,33q104,0 176.5-36.5t110-102T810,415q0-86-29-162T696.5,118.5T563,27T388-6Zm7,66q78,0 141,27.5T644,164t69,112.5T737,412q0,68-29.5,119T621,611T479,640q-78,0-141-27.5T230.5,536t-69-112.5T137,288q0-67 29.5-118.5T253,89T395,60Z" />
      <glyph unicode="P" glyph-name="gid43" horiz-adv-x="718" d="M62,0L202,700H453q119,0 184.5-52T703,502q0-90-39.5-152.5T551,254T378,221H147l40,35L135,0H62ZM185,250l-26,36H379q119,0 184.5,53T629,495q0,69-47,105T447,636H231l39,37L185,250Z" />
      <glyph unicode="Q" glyph-name="gid45" horiz-adv-x="839" d="M388-6Q285-6 212,30.5t-110.5,102T64,285q0,86 29,162t84.5,134.5T311,673t175,33q104,0 176.5-36.5t110-102T810,415q0-86-29-162T696.5,118.5T563,27T388-6ZM588-139q-75,0-135,39T347,10l83,18q32-55 71-81.5T590-80q39,0 73.5,16T725-19l32-45q-31-38-75.5-56.5T588-139ZM395,60q78,0 141,27.5T644,164t69,112.5T737,412q0,68-29.5,119T621,611T479,640q-78,0-141-27.5T230.5,536t-69-112.5T137,288q0-67 29.5-118.5T253,89T395,60Z" />
      <glyph unicode="R" glyph-name="gid46" horiz-adv-x="723" d="M62,0L202,700H454q119,0 184.5-52T704,502q0-89-39.5-151.5T552,255T379,222H148l39,34L136,0H62ZM541,0L398,254h79L621,0H541ZM185,250l-25,36H380q119,0 184.5,53T630,495q0,69-47,105T449,636H232l38,36L185,250Z" />
      <glyph unicode="S" glyph-name="gid47" horiz-adv-x="615" d="M266-6Q215-6 165.5,5.5T76,37.5T12,83l36,58q24-25 59.5-44T186,67.5T272,57q62,0 108.5,16T453,120t26,75q0,35-20,56.5t-52,35T336,311t-78,24t-71.5,32t-52,50T115,495q0,66 36,113.5T250,681t145,25q62,0 119.5-15T612,646l-31-60q-38,28-87,42.5T391,643q-61,0-107-17t-71.5-48.5T187,502q0-35 19.5-57t52-36T330,383.5t78-24t71.5-31t52.5-48T552,205q0-67-37-114.5t-101.5-72T266-6Z" />
      <glyph unicode="T" glyph-name="gid48" horiz-adv-x="574" d="M198,0L325,636H78l13,64H657l-13-64H398L271,0H198Z" />
      <glyph unicode="U" glyph-name="gid49" horiz-adv-x="768" d="M349-6Q256-6 194.5,31T109,136.5T104,299l80,401h73L177,301q-23-118 24-179.5T355,60q102,0 164.5,58.5T606,301l80,399h72L678,296Q647,144 564.5,69T349-6Z" />
      <glyph unicode="V" glyph-name="gid54" horiz-adv-x="698" d="M261,0L90,700h76L325,42H280L705,700h78L333,0H261Z" />
      <glyph unicode="W" glyph-name="gid55" horiz-adv-x="1091" d="M209,0L113,700h73L276,42H239L598,700h69L759,42H723l355,658h75L776,0H699L609,623l21,1L287,0H209Z" />
      <glyph unicode="X" glyph-name="gid56" horiz-adv-x="656" d="M-35,0L324,382l-4-41L122,700h78L370,391l-33,4L624,700h84L373,342l2,40L585,0H507L327,329l31-2L53,0H-35Z" />
      <glyph unicode="Y" glyph-name="gid57" horiz-adv-x="654" d="M237,0l53,262l8-50L98,700h73L346,274l-40-1L651,700h80L337,211l26,51L310,0H237Z" />
      <glyph unicode="Z" glyph-name="gid59" horiz-adv-x="651" d="M-8,0L2,51L606,664l6-28H127l13,64H695l-10-51L80,36L75,64H579L566,0H-8Z" />
      <glyph unicode="[" glyph-name="gid206" horiz-adv-x="319" d="M22-194L209,742H392l-12-60H268L106-134H217l-12-60H22Z" />
      <glyph unicode="\" glyph-name="gid195" horiz-adv-x="335" d="M287-100H225L80,842h62L287-100Z" />
      <glyph unicode="]" glyph-name="gid207" horiz-adv-x="318" d="M114-194H-69l12,60H55L217,682H105l12,60H301L114-194Z" />
      <glyph unicode="^" glyph-name="gid249" horiz-adv-x="576" d="M60,143L317,557h60l92-414H413L330,532h31L121,143H60Z" />
      <glyph unicode="_" glyph-name="gid201" horiz-adv-x="500" d="M-62-48L-52,0H448L438-48H-62Z" />
      <glyph unicode="`" glyph-name="gid310" horiz-adv-x="600" d="M363,607L226,731h94L434,607H363Z" />
      <glyph unicode="a" glyph-name="gid60" horiz-adv-x="678" d="M271-5Q204-5 152,22T71,99T42,218q0,67 22,124t62,99.5T220.5,507T339,530q69,0 117-24.5t74-71T556,322q0-95-35-169T422,37T271-5Zm15,63q66,0 117.5,31.5t81,87.5T514,304q0,78-45.5,121T341,468q-65,0-117-32t-81.5-87.5T113,221q0-77 45.5-120T286,58ZM459,0l30,151l30,106l10,110l32,158h71L527,0H459Z" />
      <glyph unicode="b" glyph-name="gid68" horiz-adv-x="678" d="M47,0L195,742h71L192,373L160,269L148,167L115,0H47ZM339-5Q271-5 222.5,19.5t-74,71T122,203q0,72 20,132t57.5,103.5t90,67.5T407,530q68,0 119.5-26.5t81-76.5T637,308q0-68-22-125T552.5,84T458,18.5T339-5Zm-1,63q66,0 117,31.5T535.5,177T565,304q0,78-45,121T392,468q-65,0-116.5-32t-81-87.5T165,221q0-77 45-120T338,58Z" />
      <glyph unicode="c" glyph-name="gid69" horiz-adv-x="563" d="M285-5Q210-5 155.5,22.5T71.5,100T42,218q0,90 39,160.5t108.5,111T348,530q73,0 125.5-26.5T555,425l-60-35q-22,40-60.5,59T342,468q-66,0-118-32t-81.5-87.5T113,221q0-77 45.5-120T288,58q51,0 94.5,19.5T454,134l51-39q-34-47-93-73.5T285-5Z" />
      <glyph unicode="d" glyph-name="gid71" horiz-adv-x="678" d="M271-5Q204-5 152,22T71,99T42,218q0,67 22,124t62,99.5T220.5,507T339,530q69,0 117-24.5t74-71T556,322q0-71-19.5-131T479,87T388.5,19T271-5Zm15,63q66,0 117.5,31.5t81,87.5T514,304q0,78-45.5,121T341,468q-65,0-117-32t-81.5-87.5T113,221q0-77 45.5-120T286,58ZM459,0l30,151l30,106l10,110l75,375h71L527,0H459Z" />
      <glyph unicode="e" glyph-name="gid73" horiz-adv-x="604" d="M287-5Q212-5 156.5,22.5T71.5,100T42,219q0,90 38,160T184,489.5T333,530q70,0 121-26.5T533.5,427T562,307q0-16-2-32.5T555,243H94l9,53H522l-29-20q10,63-9,106t-58.5,65.5T331,470q-64,0-114-31.5t-78-87T111,222q0-79 45.5-121.5T293,58q53,0 98,17.5T465,124l32-51q-37-37-92.5-57.5T287-5Z" />
      <glyph unicode="f" glyph-name="gid78" horiz-adv-x="339" d="M59,0L177,592q15,74 60.5,114.5T357,747q32,0 60-9t46-25l-32-52q-28,26-74,26t-73-24.5T245,584l-16-77l-4-31L130,0H59ZM58,466l11,59H394l-12-59H58Z" />
      <glyph unicode="g" glyph-name="gid79" horiz-adv-x="685" d="M241-199q-73,0-133,20.5T7-120L49-66q32-32 83.5-51T246-136q100,0 155,46T474,52l28,138l27,86l11,90l31,159h68L547,64Q520-75 445-137T241-199ZM276,20q-69,0-121.5,26T73,119.5T44,232q0,64 22,118t62,94.5t95,63T344,530q63,0 112-22t77.5-66T562,330q1-86-34-156.5t-99-112T276,20Zm14,63q66,0 117.5,30T489,195.5T519,315q0,72-46,112.5T345,468q-66,0-118-30t-81.5-82.5T116,236q0-72 46-112.5T290,83Z" />
      <glyph unicode="h" glyph-name="gid80" horiz-adv-x="676" d="M408,530q71,0 116.5-27.5t63-79.5T590,299L530,0H459l60,300q16,78-16.5,122T388,466q-84,0-139.5-46T174,282L118,0H47L195,742h71L192,374l-18,26q38,68 98.5,99T408,530Z" />
      <glyph unicode="i" glyph-name="gid81" horiz-adv-x="269" d="M47,0L151,525h71L118,0H47ZM216,641q-21,0-34.5,14T168,688q0,22 15.5,38T223,742q22,0 35.5-13T272,696q0-24-15.5-39.5T216,641Z" />
      <glyph unicode="j" glyph-name="gid89" horiz-adv-x="274" d="M-63-199q-34,0-62.5,8.5T-174-166l33,55q31-27 79-27q43,0 68.5,23.5T43-38L156,525h71L114-40Q82-199-63-199ZM220,641q-21,0-34.5,14T172,688q0,22 15.5,38T227,742q22,0 35.5-13T276,696q0-24-15.5-39.5T220,641Z" />
      <glyph unicode="k" glyph-name="gid91" horiz-adv-x="594" d="M132,140l14,87L528,525H629L342,302l-39-30L132,140ZM47,0L195,742h71L118,0H47ZM457,0L291,273l49,53L540,0H457Z" />
      <glyph unicode="l" glyph-name="gid92" horiz-adv-x="269" d="M47,0L195,742h71L118,0H47Z" />
      <glyph unicode="m" glyph-name="gid93" horiz-adv-x="1061" d="M795,530q71,0 115.5-27.5T972,423t2-124L914,0H843l60,300q16,78-14.5,122T778,466q-79,0-132.5-44T574,290L516,0H445l60,300q16,78-15,122T380,466q-81,0-134-46T174,282L118,0H47L151,525h68L189,374l-15,26q38,68 96,99t131,31q55,0 94.5-18.5t62-54T582,373l-37,8q39,75 103.5,112T795,530Z" />
      <glyph unicode="n" glyph-name="gid94" horiz-adv-x="676" d="M408,530q71,0 116.5-27.5t63-79.5T590,299L530,0H459l60,300q16,78-16.5,122T388,466q-84,0-139.5-46T174,282L118,0H47L151,525h68L189,374l-15,26q38,68 98.5,99T408,530Z" />
      <glyph unicode="o" glyph-name="gid96" horiz-adv-x="627" d="M281-5Q208-5 154.5,22.5T71.5,100T42,218q0,90 39,160.5t108,111T346,530q73,0 126.5-27t83-77T585,308q0-90-39-160.5T438.5,36T281-5Zm5,63q66,0 117.5,31.5t81,87.5T514,304q0,78-45.5,121T341,468q-65,0-117-32t-81.5-87.5T113,221q0-77 45.5-120T286,58Z" />
      <glyph unicode="p" glyph-name="gid104" horiz-adv-x="678" d="M339-5Q271-5 222.5,19.5t-74,71T122,203q0,97 35,170.5t99,115T407,530q68,0 119.5-26.5t81-76.5T637,308q0-68-22-125T552.5,84T458,18.5T339-5ZM8-194L151,525h68L189,374L160,269L149,159L79-194H8ZM338,58q66,0 117,31.5T535.5,177T565,304q0,78-45,121T392,468q-65,0-116.5-32t-81-87.5T165,221q0-77 45-120T338,58Z" />
      <glyph unicode="q" glyph-name="gid106" horiz-adv-x="678" d="M271-5Q204-5 152,22T71,99T42,218q0,67 22,124t62,99.5T220.5,507T339,530q69,0 117-24.5t74-71T556,322q0-95-35-169T422,37T271-5Zm15,63q66,0 117.5,31.5t81,87.5T514,304q0,78-45.5,121T341,468q-65,0-117-32t-81.5-87.5T113,221q0-77 45.5-120T286,58ZM417-194l69,346l33,105l11,101l34,167h68L488-194H417Z" />
      <glyph unicode="r" glyph-name="gid107" horiz-adv-x="401" d="M47,0L151,525h68L189,370l-8,27q35,69 92.5,101T417,530l-13-69q-5,0-9.5,0.5T384,462q-84,0-138.5-48.5T171,267L118,0H47Z" />
      <glyph unicode="s" glyph-name="gid108" horiz-adv-x="488" d="M200-5Q136-5 79,13T-9,59l34,56q30-27 79-42.5T207,57q75,0 115.5,25T363,151q0,30-21.5,45.5t-55.5,24T214,237t-72,20.5T86.5,296T65,366q0,50 28.5,87T173,510t120,20q50,0 99-13t79-36l-30-57q-31,24-72,34.5T287,469q-73,0-112.5-26.5T135,373q0-30 21.5-46T212,302t72.5-16.5t72-20.5t55-37.5T433,159q0-52-29-88.5t-81.5-56T200-5Z" />
      <glyph unicode="t" glyph-name="gid110" horiz-adv-x="407" d="M214-5q-45,0-77,19.5T92.5,70T90,156l96,485h71L161,159q-10-49 7.5-76T233,56q22,0 43,6.5T314,83l17-54Q306,10 275,2.5T214-5ZM58,466l11,59H394l-12-59H58Z" />
      <glyph unicode="u" glyph-name="gid111" horiz-adv-x="672" d="M267-5Q198-5 152.5,23T90,103T86,226l60,299h71L157,226q-15-78 17-122.5T286,59q83,0 138.5,46T499,243l56,282h71L521,0H453l30,151l15-25q-37-68-97.5-99.5T267-5Z" />
      <glyph unicode="v" glyph-name="gid116" horiz-adv-x="542" d="M183,0L53,525h71L242,38H208L520,525h74L255,0H183Z" />
      <glyph unicode="w" glyph-name="gid117" horiz-adv-x="879" d="M160,0L57,525h65L215,38H183L461,525h60L617,38H585L859,525h69L631,0H562L468,458h22L228,0H160Z" />
      <glyph unicode="x" glyph-name="gid118" horiz-adv-x="534" d="M-35,0L248,290l-8-35L84,525h75L289,298l-32,1L475,525h82L288,248l6,40L461,0H385L248,240h32L49,0H-35Z" />
      <glyph unicode="y" glyph-name="gid119" horiz-adv-x="542" d="M20-199q-37,0-71,12.5T-105-152l38,52q17-18 40-28t52-10q34,0 62.5,18.5T147-53l53,81l9,10L521,525h73L210-68q-33-50-62-78.5T88.5-187T20-199ZM188-15L53,525h72L243,43L188-15Z" />
      <glyph unicode="z" glyph-name="gid122" horiz-adv-x="511" d="M-11,0l9,47L432,490l16-24H89l12,59H516l-10-46L73,35L54,59H429L417,0H-11Z" />
      <glyph unicode="{" glyph-name="gid204" horiz-adv-x="335" d="M184-194q-40,0-67.5,16T78-130.5T76-53l49,246q5,27-4,39T91,244H56l12,60h35q23,0 36,12t18,39l53,262q13,63 51,94t110,31h37l-12-60H370q-40,0-61.5-19.5T280,610L229,356q-6-30-16-47.5T187,282t-42-13l2,9q30-5 43.5-25.5T196,192L148-46q-9-46 8-67t50-21h27l-12-60H184Z" />
      <glyph unicode="|" glyph-name="gid230" horiz-adv-x="294" d="M23-194L210,742h66L89-194H23Z" />
      <glyph unicode="}" glyph-name="gid205" horiz-adv-x="335" d="M-70-194l12,60h27q41,0 62,19.5T59-62l51,254q7,31 16.5,48.5t26,26.5T194,279l-2-9q-30,5-43.5,25.5T143,356l48,238q9,46-8,67t-50,21H106l11,60h38q40,0 67.5-16T261,678.5t2-77.5L213,355q-5-27 4.5-39T247,304h35l-11-60H236q-23,0-36-12t-18-39L129-69q-13-63-51-94T-32-194H-70Z" />
      <glyph unicode="~" glyph-name="gid247" horiz-adv-x="575" d="M401,272q-38,0-63,15.5T294.5,323T257,358t-46,15q-37,0-62.5-25.5T114,278H65q9,50 30,83.5T146,412t63,17q39,0 63.5-15.5t43-35.5T353,342.5T399,327q37,0 62.5,26.5T496,423h49q-9-49-30-83t-50.5-51T401,272Z" />
      <glyph unicode="&#xa0;" glyph-name="gid176" horiz-adv-x="262" />
      <glyph unicode="&#xa1;" glyph-name="gid187" horiz-adv-x="260" d="M4-154L113,315h54L88-154H4ZM171,427q-21,0-36,14.5T120,475q0,16 7.5,28t20,19.5T175,530q22,0 36-14t14-35q0-22-15.5-38T171,427Z" />
      <glyph unicode="&#xa2;" glyph-name="gid232" horiz-adv-x="563" d="M285-5Q210-5 155.5,22.5T71.5,100T42,218q0,90 39,160.5t108.5,111T348,530q73,0 125.5-26.5T555,425l-60-35q-22,40-60.5,59T342,468q-66,0-118-32t-81.5-87.5T113,221q0-77 45.5-120T288,58q51,0 94.5,19.5T454,134l51-39q-34-47-93-73.5T285-5ZM209-120L361,645h49L258-120H209Z" />
      <glyph unicode="&#xa3;" glyph-name="gid236" horiz-adv-x="637" d="M93,13l89,446q17,86 61.5,140.5T353,680t143,26q61,0 113-13.5T695,650l-35-58q-32,26-74.5,37T492,640q-98,0-158-44.5T254,452L166,13H93ZM-23,0l13,64H567L554,0H-23ZM41,325l11,50H515l-10-50H41Z" />
      <glyph unicode="&#xa4;" glyph-name="gid233" horiz-adv-x="700" d="M161,473L44,590l42,45L203,518l-42-45Zm398,0l-42,45L635,635l42-45L559,473ZM635,0L517,117l42,45L677,45L635,0ZM86,0L44,45L161,162l42-45L86,0ZM360,52q-56,0-105.5,21t-87,57.5t-59,84.5T87,318t21.5,103.5t59,85.5t87,58T360,586q58,0 107.5-21T555,507t59.5-85.5T636,318T614.5,215T555,130.5T467.5,73T360,52Zm0,60q60,0 109,28t79,74.5T578,318T548,422t-79,75.5T360,526q-58,0-107-28.5T175,422T146,318t29-103.5T253,140t107-28Z" />
      <glyph unicode="&#xa5;" glyph-name="gid237" horiz-adv-x="695" d="M258,0l61,305l9-43L88,700h76L377,307H336L703,700h78L367,255l26,50L332,0H258ZM63,130l10,44H586l-9-44H63ZM91,268l10,44H614l-9-44H91Z" />
      <glyph unicode="&#xa6;" glyph-name="gid231" horiz-adv-x="294" d="M140,392l70,350h66L206,392H140ZM23-194L93,156h66L89-194H23Z" />
      <glyph unicode="&#xa7;" glyph-name="gid223" horiz-adv-x="490" d="M321,148l-49,36q61,10 94,41t33,74q0,34-20.5,52T326,380t-68.5,20.5t-68,24t-52,40.5T117,536q0,50 29.5,88t83,59.5T353,705q33,0 67.5-6T485,682t50-28l-31-53q-30,23-71.5,34.5T348,647q-80,0-123.5-31.5T181,540q0-33 20-50.5T253.5,462t68-19.5T389,418t52.5-41T462,305q0-58-40-99.5T321,148ZM158-105q-58,0-107.5,18T-31-39L1,14Q33-15 73.5-31T167-47q75,0 117,31.5T326,61q0,32-20,50t-52,28.5t-68,20t-68,25t-52.5,41T45,295q0,55 38,97.5T183,452l48-36q-59-12-91-43t-32-72q0-31 20.5-49.5T181,222t68-21t68.5-25t53-41T391,65q0-50-29.5-88.5T280-83.5T158-105Z" />
      <glyph unicode="&#xa8;" glyph-name="gid309" horiz-adv-x="600" d="M468,630q-17,0-28.5,11T428,668q0,21 13.5,34.5T473,716q17,0 29-11t12-29q0-20-13.5-33T468,630Zm-178,0q-17,0-29,11t-12,27q0,21 14,34.5T294,716q18,0 29.5-11T335,676q0-20-13.5-33T290,630Z" />
      <glyph unicode="&#xa9;" glyph-name="gid224" horiz-adv-x="809" d="M421-3Q346-3 282,24T170,99.5T95.5,212T69,350T96,488t75,112.5T283.5,676T423,703t139.5-26.5t112-74.5t74-111.5T775,352T748,212.5t-75.5-113T560,24T421-3Zm0,37q67,0 124.5,24.5T646,126t67,101.5T737,352q0,67-23.5,124t-66,100T548,642.5T423,666q-67,0-125-24T197.5,574.5T131,474T107,350q0-66 23.5-123.5t66-101T296.5,58T421,34Zm10,108q-60,0-107.5,26.5T249,242T222,350t27,108t74.5,73.5T431,558q50,0 91.5-20.5T589,481l-43-32q-20,29-50.5,43T430,506q-43,0-77-19.5T299.5,432T280,350t19.5-82T353,213.5T430,194q35,0 65.5,14T546,251l43-31q-25-37-66.5-57.5T431,142Z" />
      <glyph unicode="&#xaa;" glyph-name="gid125" horiz-adv-x="401" d="M314,430l13,68v11l23,113q9,41-13,61.5T270,704q-30,0-61.5-9T153,669l-16,36q26,19 64,30t77,11q69,0 102.5-32.5T401,617L364,430H314Zm-111-3q-53,0-82,22.5T92,507q0,32 17.5,55t49,34.5T233,608H355l-6-35H233q-43,0-67-15.5T142,512q0-48 73-48q38,0 67,15t49,43l5-30q-18-28-50-46.5T203,427Z" />
      <glyph unicode="&#xab;" glyph-name="gid214" horiz-adv-x="477" d="M157,74L50,263L232,452h69L100,238l3,56L222,74H157Zm178,0L228,263L410,452h69L278,238l3,56L400,74H335Z" />
      <glyph unicode="&#xac;" glyph-name="gid248" horiz-adv-x="576" d="M529,380L482,141H419l36,180H81l12,59H529Z" />
      <glyph unicode="&#xae;" glyph-name="gid225" horiz-adv-x="809" d="M421-3Q346-3 282,24T170,99.5T95.5,212T69,350T96,488t75,112.5T283.5,676T423,703t139.5-26.5t112-74.5t74-111.5T775,352T748,212.5t-75.5-113T560,24T421-3ZM551,148L449,304h54L605,148H551ZM421,34q67,0 124.5,24.5T646,126t67,101.5T737,352q0,67-23.5,124t-66,100T548,642.5T423,666q-67,0-125-24T197.5,574.5T131,474T107,350q0-66 23.5-123.5t66-101T296.5,58T421,34ZM284,148V552H441q74,0 116.5-36.5T600,418q0-64-42.5-100T441,282H336V148H284Zm51,178H437q53,0 82.5,24T549,418q0,43-29.5,66.5T437,508H335V326Z" />
      <glyph unicode="&#xaf;" glyph-name="gid315" horiz-adv-x="600" d="M172,645l9,47H489l-9-47H172Z" />
      <glyph unicode="&#xb0;" glyph-name="gid227" horiz-adv-x="419" d="M267,388q-45,0-81.5,21.5t-57.5,57T107,547q0,44 21,80t57.5,57T267,705t81-21t57-57t21-80t-21-80t-57-57.5T267,388Zm0,42q33,0 59,16t41,42t15,59t-15,59.5T326,648t-59,15t-59.5-15T166,606.5T151,547t15-59.5t41.5-42T267,430Z" />
      <glyph unicode="&#xb1;" glyph-name="gid246" horiz-adv-x="575" d="M17,0L29,60H464L452,0H17ZM237,173l84,418h63L300,173H237ZM87,352l12,60H534l-12-60H87Z" />
      <glyph unicode="&#xb2;" glyph-name="gid173" horiz-adv-x="430" d="M60,327l7,35L288,522q36,27 55,46t26,35t7,33q0,30-25.5,47T278,700q-41,0-73.5-12T147,654l-32,30q29,30 72.5,46T284,746q69,0 107-29t38-77q0-22-7.5-43.5T391,551t-67-56L128,352l-17,20H397l-9-45H60Z" />
      <glyph unicode="&#xb3;" glyph-name="gid174" horiz-adv-x="430" d="M222,323q-55,0-99,15T57,377l26,40q22-21 59-34.5T226,369q62,0 97.5,23T359,458q0,32-24,49.5T261,525H214l7,37L390,717l9-20H128l9,45H451l-7-35L274,551l-24,15h23q68,0 104-28.5T413,461q0-43-24-74t-67-47.5T222,323Z" />
      <glyph unicode="&#xb4;" glyph-name="gid311" horiz-adv-x="600" d="M301,607L453,731h97L375,607H301Z" />
      <glyph unicode="&#xb5;" glyph-name="gid250" horiz-adv-x="678" d="M8-194L152,525h71L163,226q-15-78 16.5-122.5T292,59q82,0 138,46t74,138l56,282h71L527,0H459l30,151l15-25q-25-45-60-74T368.5,9T286-5Q219-5 176.5,20T117,97l27,30L79-194H8Z" />
      <glyph unicode="&#xb6;" glyph-name="gid222" horiz-adv-x="632" d="M153-100l99,495q-49,1-88,18.5t-61.5,50T80,543q0,68 32.5,112t90,65.5T333,742H613L445-100H385L542,686H370L213-100H153Z" />
      <glyph unicode="&#xb7;" glyph-name="gid190" horiz-adv-x="252" d="M126,216q-22,0-37,15.5T74,268q0,25 17,41t39,16t36.5-14T181,274q0-17-7.5-30t-20-20.5T126,216Z" />
      <glyph unicode="&#xb8;" glyph-name="gid316" horiz-adv-x="600" d="M194-220q-25,0-46,6t-38,17l22,38q14-9 30.5-14t36.5-5q33,0 50.5,15T267-125q0,19-13.5,29.5T212-85H190L232,6h43L249-51q34-5 52.5-23.5T320-122q0-44-35-71t-91-27Z" />
      <glyph unicode="&#xb9;" glyph-name="gid172" horiz-adv-x="430" d="M219,337l77,385l20-23H178l9,43H354L273,337H219ZM96,327l8,43H389l-9-43H96Z" />
      <glyph unicode="&#xba;" glyph-name="gid126" horiz-adv-x="415" d="M251,427q-46,0-80.5,17.5t-54,48.5T97,565q0,52 25.5,93t70,64.5T294,746q46,0 80-17t53-48t19-72q0-52-25-93.5t-69-65T251,427Zm4,45q41,0 72.5,18T377,538.5T395,606q0,44-29.5,70T289,702q-41,0-72.5-18T167,635t-18-68q0-44 29.5-69.5T255,472Z" />
      <glyph unicode="&#xbb;" glyph-name="gid215" horiz-adv-x="478" d="M143,452L250,263L67,74H-1L200,288l-3-55L78,452h65Zm178,0L428,263L245,74H177L378,288l-3-55L256,452h65Z" />
      <glyph unicode="&#xbc;" glyph-name="gid170" horiz-adv-x="1029" d="M211,295l77,385l20-23H170l9,43H346L265,295H211ZM88,285l8,43H381l-9-43H88ZM194,0L807,700h63L256,0H194ZM594,106l8,36L859,415h63L663,142l-27,8H977l-9-44H594ZM806,0l21,106l13,44l18,91h49L858,0H806Z" />
      <glyph unicode="&#xbd;" glyph-name="gid169" horiz-adv-x="1029" d="M211,295l77,385l20-23H170l9,43H346L265,295H211ZM88,285l8,43H381l-9-43H88ZM194,0L807,700h63L256,0H194ZM594,0l7,35L822,195q36,27 55,46t26,35t7,33q0,30-25.5,47T812,373q-41,0-73.5-12T681,327l-32,30q29,30 72.5,46T818,419q69,0 107-29t38-77q0-22-7.5-43.5T925,224t-67-56L662,25L645,45H931L922,0H594Z" />
      <glyph unicode="&#xbe;" glyph-name="gid171" horiz-adv-x="1029" d="M214,281q-55,0-99,15T49,335l26,40q22-21 59-34.5T218,327q62,0 97.5,23T351,416q0,32-24,49.5T253,483H206l7,37L382,675l9-20H120l9,45H443l-7-35L266,509l-24,15h23q68,0 104-28.5T405,419q0-43-24-74t-67-47.5T214,281ZM194,0L807,700h63L256,0H194ZM594,106l8,36L859,415h63L663,142l-27,8H977l-9-44H594ZM806,0l21,106l13,44l18,91h49L858,0H806Z" />
      <glyph unicode="&#xbf;" glyph-name="gid189" horiz-adv-x="567" d="M231-160q-63,0-109.5,18.5T50.5-89T26-7q0,44 15.5,76T82,125t53.5,44.5t56.5,41t49,46T270,315h73q-7-40-28-69t-48.5-51.5t-56.5-42T156,112T115,64.5T99,2q0-45 37-72T241-97q67,0 116.5,20.5T445-16l47-43q-44-48-109.5-74.5T231-160ZM338,427q-22,0-36.5,14.5T287,476q0,15 7.5,27.5T314,523t27,7q22,0 36-14t14-34q0-23-15.5-39T338,427Z" />
      <glyph unicode="&#xc0;" glyph-name="gid6" horiz-adv-x="717" d="M-50,0L410,700h73L663,0H589L425,659h30L30,0H-50ZM113,187l34,60H554l11-60H113ZM452,757L315,881h94L523,757H452Z" />
      <glyph unicode="&#xc1;" glyph-name="gid2" horiz-adv-x="717" d="M-50,0L410,700h73L663,0H589L425,659h30L30,0H-50ZM113,187l34,60H554l11-60H113ZM389,757L541,881h97L463,757H389Z" />
      <glyph unicode="&#xc2;" glyph-name="gid4" horiz-adv-x="717" d="M-50,0L410,700h73L663,0H589L425,659h30L30,0H-50ZM113,187l34,60H554l11-60H113ZM302,757L445,881h72L632,757H568L452,863h56L370,757H302Z" />
      <glyph unicode="&#xc3;" glyph-name="gid8" horiz-adv-x="717" d="M-50,0L410,700h73L663,0H589L425,659h30L30,0H-50ZM113,187l34,60H554l11-60H113ZM535,763q-24,0-41,10t-31.5,23.5t-28.5,24T404,831q-23,0-38-17.5T346,767H304q7,52 34.5,81T405,877q23,0 40-10.5t31-24T504,819t31-10q22,0 37.5,17.5T592,871h43q-8-50-34.5-79T535,763Z" />
      <glyph unicode="&#xc4;" glyph-name="gid5" horiz-adv-x="717" d="M-50,0L410,700h73L663,0H589L425,659h30L30,0H-50ZM113,187l34,60H554l11-60H113ZM559,780q-17,0-28.5,11T519,818q0,21 13.5,34.5T564,866q17,0 29-11t12-29q0-20-13.5-33T559,780Zm-178,0q-17,0-29,11t-12,27q0,21 14,34.5T385,866q18,0 29.5-11T426,826q0-20-13.5-33T381,780Z" />
      <glyph unicode="&#xc5;" glyph-name="gid7" horiz-adv-x="717" d="M-50,0L410,700h73L663,0H589L425,659h30L30,0H-50ZM113,187l34,60H554l11-60H113ZM475,745q-30,0-53.5,14t-37,37T371,847t13.5,52T422,937.5T475,952q30,0 53.5-14.5T566,899t14-52t-14-51t-37.5-37T475,745Zm0,35q30,0 49,19.5T543,847q0,29-19,49.5T475,917q-29,0-48.5-20T407,847q0-29 19-48t49-19Z" />
      <glyph unicode="&#xc6;" glyph-name="gid9" horiz-adv-x="1033" d="M-51,0L512,700h78l-11-63H513l52,29L32,0H-51ZM155,187l20,60H500l-12-60H155ZM426,0L566,700h480l-13-64H626L512,64H933L920,0H426ZM556,324l13,63H939l-13-63H556Z" />
      <glyph unicode="&#xc7;" glyph-name="gid12" horiz-adv-x="719" d="M391-6Q287-6 214,30.5t-111.5,102T64,285q0,86 29.5,162t85,134.5t134,91.5T490,706q84,0 149-26t100-76l-52-46q-33,41-83,61.5T484,640q-79,0-143.5-27.5T231,536T161.5,423.5T137,288q0-67 29.5-118.5T254,89T396,60q69,0 125,21t98,62l43-49Q616,45 545,19.5T391-6ZM303-220q-25,0-46,6t-38,17l22,38q14-9 30.5-14t36.5-5q33,0 50.5,15T376-125q0,19-13.5,29.5T321-85H299L341,6h43L358-51q34-5 52.5-23.5T429-122q0-44-35-71t-91-27Z" />
      <glyph unicode="&#xc8;" glyph-name="gid19" horiz-adv-x="669" d="M205,387H575l-12-63H193l12,63ZM148,64H569L556,0H62L202,700H682l-13-64H262L148,64ZM447,757L310,881h94L518,757H447Z" />
      <glyph unicode="&#xc9;" glyph-name="gid16" horiz-adv-x="669" d="M205,387H575l-12-63H193l12,63ZM148,64H569L556,0H62L202,700H682l-13-64H262L148,64ZM385,757L537,881h97L459,757H385Z" />
      <glyph unicode="&#xca;" glyph-name="gid17" horiz-adv-x="669" d="M205,387H575l-12-63H193l12,63ZM148,64H569L556,0H62L202,700H682l-13-64H262L148,64ZM298,757L441,881h72L628,757H564L448,863h56L366,757H298Z" />
      <glyph unicode="&#xcb;" glyph-name="gid18" horiz-adv-x="669" d="M205,387H575l-12-63H193l12,63ZM148,64H569L556,0H62L202,700H682l-13-64H262L148,64ZM554,780q-17,0-28.5,11T514,818q0,21 13.5,34.5T559,866q17,0 29-11t12-29q0-20-13.5-33T554,780Zm-178,0q-17,0-29,11t-12,27q0,21 14,34.5T380,866q18,0 29.5-11T421,826q0-20-13.5-33T376,780Z" />
      <glyph unicode="&#xcc;" glyph-name="gid28" horiz-adv-x="302" d="M62,0L202,700h73L135,0H62ZM244,757L107,881h94L315,757H244Z" />
      <glyph unicode="&#xcd;" glyph-name="gid25" horiz-adv-x="302" d="M62,0L202,700h73L135,0H62ZM181,757L333,881h97L255,757H181Z" />
      <glyph unicode="&#xce;" glyph-name="gid26" horiz-adv-x="302" d="M62,0L202,700h73L135,0H62ZM94,757L237,881h72L424,757H360L244,863h56L162,757H94Z" />
      <glyph unicode="&#xcf;" glyph-name="gid27" horiz-adv-x="302" d="M62,0L202,700h73L135,0H62ZM351,780q-17,0-28.5,11T311,818q0,21 13.5,34.5T356,866q17,0 29-11t12-29q0-20-13.5-33T351,780Zm-178,0q-17,0-29,11t-12,27q0,21 14,34.5T177,866q18,0 29.5-11T218,826q0-20-13.5-33T173,780Z" />
      <glyph unicode="&#xd0;" glyph-name="gid14" horiz-adv-x="831" d="M67,0L207,700H473q106,0 179.5-35.5t112-99T803,415q0-92-30.5-168.5T684.5,115T547,30T368,0H67Zm86,64H370q111,0 191.5,45t124,123.5T729,412q0,67-29,117.5T612.5,608T465,636H267L153,64ZM25,327l12,59H424l-12-59H25Z" />
      <glyph unicode="&#xd1;" glyph-name="gid34" horiz-adv-x="813" d="M62,0L202,700h60L615,89l-23,4L713,700h73L646,0H586L233,611l23-4L135,0H62ZM584,763q-24,0-41,10t-31.5,23.5t-28.5,24T453,831q-23,0-38-17.5T395,767H353q7,52 34.5,81T454,877q23,0 40-10.5t31-24T553,819t31-10q22,0 37.5,17.5T641,871h43q-8-50-34.5-79T584,763Z" />
      <glyph unicode="&#xd2;" glyph-name="gid39" horiz-adv-x="839" d="M388-6Q285-6 212,30.5t-110.5,102T64,285q0,86 29,162t84.5,134.5T311,673t175,33q104,0 176.5-36.5t110-102T810,415q0-86-29-162T696.5,118.5T563,27T388-6Zm7,66q78,0 141,27.5T644,164t69,112.5T737,412q0,68-29.5,119T621,611T479,640q-78,0-141-27.5T230.5,536t-69-112.5T137,288q0-67 29.5-118.5T253,89T395,60ZM512,757L375,881h94L583,757H512Z" />
      <glyph unicode="&#xd3;" glyph-name="gid36" horiz-adv-x="839" d="M388-6Q285-6 212,30.5t-110.5,102T64,285q0,86 29,162t84.5,134.5T311,673t175,33q104,0 176.5-36.5t110-102T810,415q0-86-29-162T696.5,118.5T563,27T388-6Zm7,66q78,0 141,27.5T644,164t69,112.5T737,412q0,68-29.5,119T621,611T479,640q-78,0-141-27.5T230.5,536t-69-112.5T137,288q0-67 29.5-118.5T253,89T395,60Zm55,697L602,881h97L524,757H450Z" />
      <glyph unicode="&#xd4;" glyph-name="gid37" horiz-adv-x="839" d="M388-6Q285-6 212,30.5t-110.5,102T64,285q0,86 29,162t84.5,134.5T311,673t175,33q104,0 176.5-36.5t110-102T810,415q0-86-29-162T696.5,118.5T563,27T388-6Zm7,66q78,0 141,27.5T644,164t69,112.5T737,412q0,68-29.5,119T621,611T479,640q-78,0-141-27.5T230.5,536t-69-112.5T137,288q0-67 29.5-118.5T253,89T395,60ZM363,757L506,881h72L693,757H629L513,863h56L431,757H363Z" />
      <glyph unicode="&#xd5;" glyph-name="gid41" horiz-adv-x="839" d="M388-6Q285-6 212,30.5t-110.5,102T64,285q0,86 29,162t84.5,134.5T311,673t175,33q104,0 176.5-36.5t110-102T810,415q0-86-29-162T696.5,118.5T563,27T388-6Zm7,66q78,0 141,27.5T644,164t69,112.5T737,412q0,68-29.5,119T621,611T479,640q-78,0-141-27.5T230.5,536t-69-112.5T137,288q0-67 29.5-118.5T253,89T395,60ZM596,763q-24,0-41,10t-31.5,23.5t-28.5,24T465,831q-23,0-38-17.5T407,767H365q7,52 34.5,81T466,877q23,0 40-10.5t31-24T565,819t31-10q22,0 37.5,17.5T653,871h43q-8-50-34.5-79T596,763Z" />
      <glyph unicode="&#xd6;" glyph-name="gid38" horiz-adv-x="839" d="M388-6Q285-6 212,30.5t-110.5,102T64,285q0,86 29,162t84.5,134.5T311,673t175,33q104,0 176.5-36.5t110-102T810,415q0-86-29-162T696.5,118.5T563,27T388-6Zm7,66q78,0 141,27.5T644,164t69,112.5T737,412q0,68-29.5,119T621,611T479,640q-78,0-141-27.5T230.5,536t-69-112.5T137,288q0-67 29.5-118.5T253,89T395,60ZM619,780q-17,0-28.5,11T579,818q0,21 13.5,34.5T624,866q17,0 29-11t12-29q0-20-13.5-33T619,780Zm-178,0q-17,0-29,11t-12,27q0,21 14,34.5T445,866q18,0 29.5-11T486,826q0-20-13.5-33T441,780Z" />
      <glyph unicode="&#xd7;" glyph-name="gid241" horiz-adv-x="575" d="M117,218L456,526l37-44L154,174l-37,44Zm32,267l44,41L460,215l-43-41L149,485Z" />
      <glyph unicode="&#xd8;" glyph-name="gid40" horiz-adv-x="839" d="M388-6Q285-6 212,30.5t-110.5,102T64,285q0,86 29,162t84.5,134.5T311,673t175,33q104,0 176.5-36.5t110-102T810,415q0-86-29-162T696.5,118.5T563,27T388-6Zm7,66q78,0 141,27.5T644,164t69,112.5T737,412q0,68-29.5,119T621,611T479,640q-78,0-141-27.5T230.5,536t-69-112.5T137,288q0-67 29.5-118.5T253,89T395,60ZM85-70L718,770h71L155-70H85Z" />
      <glyph unicode="&#xd9;" glyph-name="gid53" horiz-adv-x="768" d="M349-6Q256-6 194.5,31T109,136.5T104,299l80,401h73L177,301q-23-118 24-179.5T355,60q102,0 164.5,58.5T606,301l80,399h72L678,296Q647,144 564.5,69T349-6ZM477,757L340,881h94L548,757H477Z" />
      <glyph unicode="&#xda;" glyph-name="gid50" horiz-adv-x="768" d="M349-6Q256-6 194.5,31T109,136.5T104,299l80,401h73L177,301q-23-118 24-179.5T355,60q102,0 164.5,58.5T606,301l80,399h72L678,296Q647,144 564.5,69T349-6Zm65,763L566,881h97L488,757H414Z" />
      <glyph unicode="&#xdb;" glyph-name="gid51" horiz-adv-x="768" d="M349-6Q256-6 194.5,31T109,136.5T104,299l80,401h73L177,301q-23-118 24-179.5T355,60q102,0 164.5,58.5T606,301l80,399h72L678,296Q647,144 564.5,69T349-6ZM327,757L470,881h72L657,757H593L477,863h56L395,757H327Z" />
      <glyph unicode="&#xdc;" glyph-name="gid52" horiz-adv-x="768" d="M349-6Q256-6 194.5,31T109,136.5T104,299l80,401h73L177,301q-23-118 24-179.5T355,60q102,0 164.5,58.5T606,301l80,399h72L678,296Q647,144 564.5,69T349-6ZM584,780q-17,0-28.5,11T544,818q0,21 13.5,34.5T589,866q17,0 29-11t12-29q0-20-13.5-33T584,780Zm-178,0q-17,0-29,11t-12,27q0,21 14,34.5T410,866q18,0 29.5-11T451,826q0-20-13.5-33T406,780Z" />
      <glyph unicode="&#xdd;" glyph-name="gid58" horiz-adv-x="654" d="M237,0l53,262l8-50L98,700h73L346,274l-40-1L651,700h80L337,211l26,51L310,0H237ZM357,757L509,881h97L431,757H357Z" />
      <glyph unicode="&#xde;" glyph-name="gid44" horiz-adv-x="718" d="M143,130l12,64H362q118,0 183.5,53T611,404q0,69-47,104.5T430,544H226l12,65H437q118,0 183-52t65-147q0-89-39-152T534,162.5T360,130H143ZM62,0L202,700h73L135,0H62Z" />
      <glyph unicode="&#xdf;" glyph-name="gid109" horiz-adv-x="667" d="M341-5q-31,0-63.5,5T225,13l20,60q21-8 46-12t50-4q59,0 103.5,20.5T514,137t25,92q0,59-41,86.5T389,343H333l12,61q61,1 108,21.5T526.5,485T553,577q0,51-33,79.5T423,685q-77,0-131.5-42T218,505L117,0H46l99,500q18,87 57.5,141t97,80T428,747q60,0 103.5-20t67-56.5T622,583q0-62-31-112t-84.5-79T384,363l31,31q58,0 102-18.5T586,321t25-89q0-72-35-125.5T480,24T341-5Z" />
      <glyph unicode="&#xe0;" glyph-name="gid64" horiz-adv-x="678" d="M271-5Q204-5 152,22T71,99T42,218q0,67 22,124t62,99.5T220.5,507T339,530q69,0 117-24.5t74-71T556,322q0-95-35-169T422,37T271-5Zm15,63q66,0 117.5,31.5t81,87.5T514,304q0,78-45.5,121T341,468q-65,0-117-32t-81.5-87.5T113,221q0-77 45.5-120T286,58ZM459,0l30,151l30,106l10,110l32,158h71L527,0H459ZM392,607L255,731h94L463,607H392Z" />
      <glyph unicode="&#xe1;" glyph-name="gid61" horiz-adv-x="678" d="M271-5Q204-5 152,22T71,99T42,218q0,67 22,124t62,99.5T220.5,507T339,530q69,0 117-24.5t74-71T556,322q0-95-35-169T422,37T271-5Zm15,63q66,0 117.5,31.5t81,87.5T514,304q0,78-45.5,121T341,468q-65,0-117-32t-81.5-87.5T113,221q0-77 45.5-120T286,58ZM459,0l30,151l30,106l10,110l32,158h71L527,0H459ZM330,607L482,731h97L404,607H330Z" />
      <glyph unicode="&#xe2;" glyph-name="gid62" horiz-adv-x="678" d="M271-5Q204-5 152,22T71,99T42,218q0,67 22,124t62,99.5T220.5,507T339,530q69,0 117-24.5t74-71T556,322q0-95-35-169T422,37T271-5Zm15,63q66,0 117.5,31.5t81,87.5T514,304q0,78-45.5,121T341,468q-65,0-117-32t-81.5-87.5T113,221q0-77 45.5-120T286,58ZM459,0l30,151l30,106l10,110l32,158h71L527,0H459ZM232,607L375,731h72L562,607H498L382,713h56L300,607H232Z" />
      <glyph unicode="&#xe3;" glyph-name="gid66" horiz-adv-x="678" d="M271-5Q204-5 152,22T71,99T42,218q0,67 22,124t62,99.5T220.5,507T339,530q69,0 117-24.5t74-71T556,322q0-95-35-169T422,37T271-5Zm15,63q66,0 117.5,31.5t81,87.5T514,304q0,78-45.5,121T341,468q-65,0-117-32t-81.5-87.5T113,221q0-77 45.5-120T286,58ZM459,0l30,151l30,106l10,110l32,158h71L527,0H459Zm17,613q-24,0-41,10t-31.5,23.5t-28.5,24T345,681q-23,0-38-17.5T287,617H245q7,52 34.5,81T346,727q23,0 40-10.5t31-24T445,669t31-10q22,0 37.5,17.5T533,721h43q-8-50-34.5-79T476,613Z" />
      <glyph unicode="&#xe4;" glyph-name="gid63" horiz-adv-x="678" d="M271-5Q204-5 152,22T71,99T42,218q0,67 22,124t62,99.5T220.5,507T339,530q69,0 117-24.5t74-71T556,322q0-95-35-169T422,37T271-5Zm15,63q66,0 117.5,31.5t81,87.5T514,304q0,78-45.5,121T341,468q-65,0-117-32t-81.5-87.5T113,221q0-77 45.5-120T286,58ZM459,0l30,151l30,106l10,110l32,158h71L527,0H459Zm38,630q-17,0-28.5,11T457,668q0,21 13.5,34.5T502,716q17,0 29-11t12-29q0-20-13.5-33T497,630Zm-178,0q-17,0-29,11t-12,27q0,21 14,34.5T323,716q18,0 29.5-11T364,676q0-20-13.5-33T319,630Z" />
      <glyph unicode="&#xe5;" glyph-name="gid65" horiz-adv-x="678" d="M271-5Q204-5 152,22T71,99T42,218q0,67 22,124t62,99.5T220.5,507T339,530q69,0 117-24.5t74-71T556,322q0-95-35-169T422,37T271-5Zm15,63q66,0 117.5,31.5t81,87.5T514,304q0,78-45.5,121T341,468q-65,0-117-32t-81.5-87.5T113,221q0-77 45.5-120T286,58ZM459,0l30,151l30,106l10,110l32,158h71L527,0H459ZM416,595q-30,0-53.5,14t-37,37T312,697t13.5,52T363,787.5T416,802q30,0 53.5-14.5T507,749t14-52t-14-51t-37.5-37T416,595Zm0,35q30,0 49,19.5T484,697q0,29-19,49.5T416,767q-29,0-48.5-20T348,697q0-29 19-48t49-19Z" />
      <glyph unicode="&#xe6;" glyph-name="gid67" horiz-adv-x="987" d="M219-5Q160-5 118,12T54,60T32,134q0,74 57,118.5T255,297H438l-8-53H250q-71,0-109.5-28T102,138q0-42 30.5-64.5T226,51q44,0 82.5,16.5t65.5,50T411,201l25,123q15,70-16.5,107T311,468q-51,0-99-17t-82-44l-24,56q29,22 64.5,37t74,22.5T321,530q93,0 138.5-40T504,378l-35,6q26,47 64,79.5T618,513t97,17q70,0 121.5-26.5T917,427t29-120q0-16-2-32.5T938,244H476l9,53H905l-31-21q10,63-8.5,106T807,447.5T712,470q-63,0-113-31.5t-78.5-87T492,222q0-82 46-123T674,58q55,0 98,17.5T845,124l33-51q-38-37-93.5-57.5T668-5Q606-5 555.5,15t-83,61.5T431,180l38-2q-18-67-57-107T323,13T219-5Z" />
      <glyph unicode="&#xe7;" glyph-name="gid70" horiz-adv-x="563" d="M285-5Q210-5 155.5,22.5T71.5,100T42,218q0,90 39,160.5t108.5,111T348,530q73,0 125.5-26.5T555,425l-60-35q-22,40-60.5,59T342,468q-66,0-118-32t-81.5-87.5T113,221q0-77 45.5-120T288,58q51,0 94.5,19.5T454,134l51-39q-34-47-93-73.5T285-5ZM221-221q-25,0-46,6t-38,17l22,38q14-9 30.5-14t36.5-5q33,0 50.5,15T294-126q0,19-13.5,29.5T239-86H217L259,5h43L276-52q34-5 52.5-23.5T347-123q0-44-35-71t-91-27Z" />
      <glyph unicode="&#xe8;" glyph-name="gid77" horiz-adv-x="604" d="M287-5Q212-5 156.5,22.5T71.5,100T42,219q0,90 38,160T184,489.5T333,530q70,0 121-26.5T533.5,427T562,307q0-16-2-32.5T555,243H94l9,53H522l-29-20q10,63-9,106t-58.5,65.5T331,470q-64,0-114-31.5t-78-87T111,222q0-79 45.5-121.5T293,58q53,0 98,17.5T465,124l32-51q-37-37-92.5-57.5T287-5Zm72,611L222,730h94L430,606H359Z" />
      <glyph unicode="&#xe9;" glyph-name="gid74" horiz-adv-x="604" d="M287-5Q212-5 156.5,22.5T71.5,100T42,219q0,90 38,160T184,489.5T333,530q70,0 121-26.5T533.5,427T562,307q0-16-2-32.5T555,243H94l9,53H522l-29-20q10,63-9,106t-58.5,65.5T331,470q-64,0-114-31.5t-78-87T111,222q0-79 45.5-121.5T293,58q53,0 98,17.5T465,124l32-51q-37-37-92.5-57.5T287-5Zm10,611L449,730h97L371,606H297Z" />
      <glyph unicode="&#xea;" glyph-name="gid75" horiz-adv-x="604" d="M287-5Q212-5 156.5,22.5T71.5,100T42,219q0,90 38,160T184,489.5T333,530q70,0 121-26.5T533.5,427T562,307q0-16-2-32.5T555,243H94l9,53H522l-29-20q10,63-9,106t-58.5,65.5T331,470q-64,0-114-31.5t-78-87T111,222q0-79 45.5-121.5T293,58q53,0 98,17.5T465,124l32-51q-37-37-92.5-57.5T287-5ZM200,606L343,730h72L530,606H466L350,712h56L268,606H200Z" />
      <glyph unicode="&#xeb;" glyph-name="gid76" horiz-adv-x="604" d="M287-5Q212-5 156.5,22.5T71.5,100T42,219q0,90 38,160T184,489.5T333,530q70,0 121-26.5T533.5,427T562,307q0-16-2-32.5T555,243H94l9,53H522l-29-20q10,63-9,106t-58.5,65.5T331,470q-64,0-114-31.5t-78-87T111,222q0-79 45.5-121.5T293,58q53,0 98,17.5T465,124l32-51q-37-37-92.5-57.5T287-5ZM464,629q-17,0-28.5,11T424,667q0,21 13.5,34.5T469,715q17,0 29-11t12-29q0-20-13.5-33T464,629Zm-178,0q-17,0-29,11t-12,27q0,21 14,34.5T290,715q18,0 29.5-11T331,675q0-20-13.5-33T286,629Z" />
      <glyph unicode="&#xec;" glyph-name="gid87" horiz-adv-x="269" d="M47,0L151,525h71L118,0H47ZM198,607L61,731h94L269,607H198Z" />
      <glyph unicode="&#xed;" glyph-name="gid83" horiz-adv-x="269" d="M47,0L151,525h71L118,0H47Zm89,607L288,731h97L210,607H136Z" />
      <glyph unicode="&#xee;" glyph-name="gid84" horiz-adv-x="269" d="M47,0L151,525h71L118,0H47ZM63,607L184,731h69l90-124H282L193,713h48L129,607H63Z" />
      <glyph unicode="&#xef;" glyph-name="gid85" horiz-adv-x="269" d="M47,0L151,525h71L118,0H47ZM280,630q-17,0-28,11t-11,27q0,20 12.5,34T285,716q17,0 28-11t11-29q0-19-13-32.5T280,630Zm-133,0q-17,0-28,11t-11,27q0,20 12.5,34T152,716q17,0 28-11.5T191,676q0-20-13-33t-31-13Z" />
      <glyph unicode="&#xf0;" glyph-name="gid72" horiz-adv-x="583" d="M263-2Q161-2 100,52T39,197q0,73 31.5,127.5t87,85.5T285,441q66,0 118-29t71-78q-10,72-47,142T331,607.5T198,712l51,34q91-53 156-126T505,463t35-171q0-90-34-156T410,34T263-2Zm2,60q57,0 100,23.5t67,65T456,242q0,65-42.5,103.5T297,384q-55,0-97.5-23.5t-66.5-65T109,199q0-64 42-102.5T265,58ZM167,504l-16,40L533,705l17-39L167,504Z" />
      <glyph unicode="&#xf1;" glyph-name="gid95" horiz-adv-x="676" d="M408,530q71,0 116.5-27.5t63-79.5T590,299L530,0H459l60,300q16,78-16.5,122T388,466q-84,0-139.5-46T174,282L118,0H47L151,525h68L189,374l-15,26q38,68 98.5,99T408,530Zm79,83q-24,0-41,10t-31.5,23.5t-28.5,24T356,681q-23,0-38-17.5T298,617H256q7,52 34.5,81T357,727q23,0 40-10.5t31-24T456,669t31-10q22,0 37.5,17.5T544,721h43q-8-50-34.5-79T487,613Z" />
      <glyph unicode="&#xf2;" glyph-name="gid100" horiz-adv-x="627" d="M281-5Q208-5 154.5,22.5T71.5,100T42,218q0,90 39,160.5t108,111T346,530q73,0 126.5-27t83-77T585,308q0-90-39-160.5T438.5,36T281-5Zm5,63q66,0 117.5,31.5t81,87.5T514,304q0,78-45.5,121T341,468q-65,0-117-32t-81.5-87.5T113,221q0-77 45.5-120T286,58Zm89,549L238,731h94L446,607H375Z" />
      <glyph unicode="&#xf3;" glyph-name="gid97" horiz-adv-x="627" d="M281-5Q208-5 154.5,22.5T71.5,100T42,218q0,90 39,160.5t108,111T346,530q73,0 126.5-27t83-77T585,308q0-90-39-160.5T438.5,36T281-5Zm5,63q66,0 117.5,31.5t81,87.5T514,304q0,78-45.5,121T341,468q-65,0-117-32t-81.5-87.5T113,221q0-77 45.5-120T286,58Zm27,549L465,731h97L387,607H313Z" />
      <glyph unicode="&#xf4;" glyph-name="gid98" horiz-adv-x="627" d="M281-5Q208-5 154.5,22.5T71.5,100T42,218q0,90 39,160.5t108,111T346,530q73,0 126.5-27t83-77T585,308q0-90-39-160.5T438.5,36T281-5Zm5,63q66,0 117.5,31.5t81,87.5T514,304q0,78-45.5,121T341,468q-65,0-117-32t-81.5-87.5T113,221q0-77 45.5-120T286,58ZM215,607L358,731h72L545,607H481L365,713h56L283,607H215Z" />
      <glyph unicode="&#xf5;" glyph-name="gid102" horiz-adv-x="627" d="M281-5Q208-5 154.5,22.5T71.5,100T42,218q0,90 39,160.5t108,111T346,530q73,0 126.5-27t83-77T585,308q0-90-39-160.5T438.5,36T281-5Zm5,63q66,0 117.5,31.5t81,87.5T514,304q0,78-45.5,121T341,468q-65,0-117-32t-81.5-87.5T113,221q0-77 45.5-120T286,58ZM459,613q-24,0-41,10t-31.5,23.5t-28.5,24T328,681q-23,0-38-17.5T270,617H228q7,52 34.5,81T329,727q23,0 40-10.5t31-24T428,669t31-10q22,0 37.5,17.5T516,721h43q-8-50-34.5-79T459,613Z" />
      <glyph unicode="&#xf6;" glyph-name="gid99" horiz-adv-x="627" d="M281-5Q208-5 154.5,22.5T71.5,100T42,218q0,90 39,160.5t108,111T346,530q73,0 126.5-27t83-77T585,308q0-90-39-160.5T438.5,36T281-5Zm5,63q66,0 117.5,31.5t81,87.5T514,304q0,78-45.5,121T341,468q-65,0-117-32t-81.5-87.5T113,221q0-77 45.5-120T286,58ZM480,630q-17,0-28.5,11T440,668q0,21 13.5,34.5T485,716q17,0 29-11t12-29q0-20-13.5-33T480,630Zm-178,0q-17,0-29,11t-12,27q0,21 14,34.5T306,716q18,0 29.5-11T347,676q0-20-13.5-33T302,630Z" />
      <glyph unicode="&#xf7;" glyph-name="gid242" horiz-adv-x="575" d="M81,320l12,59H529l-12-59H81ZM264,110q-18,0-31.5,13.5T219,156q0,23 15,37t35,14q19,0 32-12.5T314,162q0-22-14.5-37T264,110Zm76,383q-18,0-31.5,13T295,538q0,23 15,37.5T345,590q19,0 32-12.5T390,545q0-22-14.5-37T340,493Z" />
      <glyph unicode="&#xf8;" glyph-name="gid101" horiz-adv-x="627" d="M281-5Q208-5 154.5,22.5T71.5,100T42,218q0,90 39,160.5t108,111T346,530q73,0 126.5-27t83-77T585,308q0-90-39-160.5T438.5,36T281-5Zm5,63q66,0 117.5,31.5t81,87.5T514,304q0,78-45.5,121T341,468q-65,0-117-32t-81.5-87.5T113,221q0-77 45.5-120T286,58ZM38-79L520,592h59L96-79H38Z" />
      <glyph unicode="&#xf9;" glyph-name="gid115" horiz-adv-x="672" d="M267-5Q198-5 152.5,23T90,103T86,226l60,299h71L157,226q-15-78 17-122.5T286,59q83,0 138.5,46T499,243l56,282h71L521,0H453l30,151l15-25q-37-68-97.5-99.5T267-5ZM397,607L260,731h94L468,607H397Z" />
      <glyph unicode="&#xfa;" glyph-name="gid112" horiz-adv-x="672" d="M267-5Q198-5 152.5,23T90,103T86,226l60,299h71L157,226q-15-78 17-122.5T286,59q83,0 138.5,46T499,243l56,282h71L521,0H453l30,151l15-25q-37-68-97.5-99.5T267-5Zm68,612L487,731h97L409,607H335Z" />
      <glyph unicode="&#xfb;" glyph-name="gid113" horiz-adv-x="672" d="M267-5Q198-5 152.5,23T90,103T86,226l60,299h71L157,226q-15-78 17-122.5T286,59q83,0 138.5,46T499,243l56,282h71L521,0H453l30,151l15-25q-37-68-97.5-99.5T267-5ZM238,607L381,731h72L568,607H504L388,713h56L306,607H238Z" />
      <glyph unicode="&#xfc;" glyph-name="gid114" horiz-adv-x="672" d="M267-5Q198-5 152.5,23T90,103T86,226l60,299h71L157,226q-15-78 17-122.5T286,59q83,0 138.5,46T499,243l56,282h71L521,0H453l30,151l15-25q-37-68-97.5-99.5T267-5ZM502,630q-17,0-28.5,11T462,668q0,21 13.5,34.5T507,716q17,0 29-11t12-29q0-20-13.5-33T502,630Zm-178,0q-17,0-29,11t-12,27q0,21 14,34.5T328,716q18,0 29.5-11T369,676q0-20-13.5-33T324,630Z" />
      <glyph unicode="&#xfd;" glyph-name="gid120" horiz-adv-x="542" d="M20-199q-37,0-71,12.5T-105-152l38,52q17-18 40-28t52-10q34,0 62.5,18.5T147-53l53,81l9,10L521,525h73L210-68q-33-50-62-78.5T88.5-187T20-199ZM188-15L53,525h72L243,43L188-15Zm70,622L410,731h97L332,607H258Z" />
      <glyph unicode="&#xfe;" glyph-name="gid105" horiz-adv-x="678" d="M8-194L195,742h71L192,374L160,269L149,160L79-194H8ZM339-5Q271-5 222.5,19.5t-74,71T122,203q0,97 35,170.5t99,115T407,530q68,0 119.5-26.5t81-76.5T637,308q0-68-22-125T552.5,84T458,18.5T339-5Zm-1,63q66,0 117,31.5T535.5,177T565,304q0,78-45,121T392,468q-65,0-116.5-32t-81-87.5T165,221q0-77 45-120T338,58Z" />
      <glyph unicode="&#xff;" glyph-name="gid121" horiz-adv-x="542" d="M20-199q-37,0-71,12.5T-105-152l38,52q17-18 40-28t52-10q34,0 62.5,18.5T147-53l53,81l9,10L521,525h73L210-68q-33-50-62-78.5T88.5-187T20-199ZM188-15L53,525h72L243,43L188-15ZM425,630q-17,0-28.5,11T385,668q0,21 13.5,34.5T430,716q17,0 29-11t12-29q0-20-13.5-33T425,630Zm-178,0q-17,0-29,11t-12,27q0,21 14,34.5T251,716q18,0 29.5-11T292,676q0-20-13.5-33T247,630Z" />
      <glyph unicode="&#x2013;" glyph-name="gid199" horiz-adv-x="500" d="M-3,246L7,297H507l-10-51H-3Z" />
      <glyph unicode="&#x2014;" glyph-name="gid200" horiz-adv-x="1000" d="M-3,246L7,297H1007l-10-51H-3Z" />
      <glyph unicode="&#x2018;" glyph-name="gid212" horiz-adv-x="212" d="M252,742L171,557l-6,45q21,0 36-15t15-37q0-25-16.5-41T160,493q-21,0-36,15t-15,36q0,14 4.5,25.5T127,597l77,145h48Z" />
      <glyph unicode="&#x2019;" glyph-name="gid213" horiz-adv-x="212" d="M103,498l80,184l7-44q-22,0-37,15t-15,37q0,25 17,41t39,16t36.5-14.5T245,695q0-13-4.5-24.5T227,642L151,498H103Z" />
      <glyph unicode="&#x201a;" glyph-name="gid208" horiz-adv-x="212" d="M-26-146L55,39L62-5Q40-5 25,10T10,47q0,25 17,41t39,16t36.5-14.5T117,52q0-13-4.5-24.5T98-1L22-146H-26Z" />
      <glyph unicode="&#x201c;" glyph-name="gid210" horiz-adv-x="382" d="M252,742L171,557l-6,45q21,0 36-15t15-37q0-25-16.5-41T160,493q-21,0-36,15t-15,36q0,14 4.5,25.5T127,597l77,145h48Zm170,0L341,557l-6,45q21,0 36-15t15-37q0-25-16.5-41T330,493q-21,0-36,15t-15,36q0,14 4.5,25.5T297,597l77,145h48Z" />
      <glyph unicode="&#x201d;" glyph-name="gid211" horiz-adv-x="382" d="M103,498l80,184l7-44q-22,0-37,15t-15,37q0,25 17,41t39,16t36.5-14.5T245,695q0-13-4.5-24.5T227,642L151,498H103Zm170,0l80,184l7-44q-22,0-37,15t-15,37q0,25 17,41t39,16t36.5-14.5T415,695q0-13-4.5-24.5T397,642L321,498H273Z" />
      <glyph unicode="&#x201e;" glyph-name="gid209" horiz-adv-x="382" d="M-26-146L55,39L62-5Q40-5 25,10T10,47q0,25 17,41t39,16t36.5-14.5T117,52q0-13-4.5-24.5T98-1L22-146H-26Zm170,0L225,39l7-44q-22,0-37,15T180,47q0,25 17,41t39,16t36.5-14.5T287,52q0-13-4.5-24.5T268-1L192-146H144Z" />
      <glyph unicode="&#x2022;" glyph-name="gid191" horiz-adv-x="295" d="M145,197q-19,0-35.5,9T84,231.5T75,268q0,23 10.5,41T114,338t40,11q20,0 36-9.5T215.5,314t9.5-36q0-23-11-41.5t-29-29T145,197Z" />
      <glyph unicode="&#x2039;" glyph-name="gid216" horiz-adv-x="299" d="M157,74L50,263L232,452h69L100,238l3,56L222,74H157Z" />
      <glyph unicode="&#x203a;" glyph-name="gid217" horiz-adv-x="300" d="M143,452L250,263L67,74H-1L200,288l-3-55L78,452h65Z" />
    </font>
</defs>
</svg>
